# xmcd
#
# Track frame offsets: 
#        150
#        23800
#        42025
#        52637
#        74687
#        89125
#        108362
#        126775
#        141475
#        149500
#        176612
#        191237
#        211187
#        229000
#        248725
#
# Disc length: 3573 seconds
#
# Revision: 0
# Processed by: cddbd v1.5.1PL2 Copyright (c) Steve Scherf et al.
# Submitted via: ExactAudioCopy v0.95b3
#
DISCID=dd0df30f
DTITLE=Eric Burdon and John Mayall - Burdon and Mayall
DYEAR=1998
DGENRE=Blues
TTITLE0=No More Elmore
TTITLE1=The Road
TTITLE2=Crawling King Snake
TTITLE3=Take It Easy
TTITLE4=Dey Won´t
TTITLE5=Wall Of Silence
TTITLE6=Streetwalker
TTITLE7=It Hurts Me Too
TTITLE8=Lights Out
TTITLE9=Bird On The Beach
TTITLE10=Why Worry
TTITLE11=Road Show
TTITLE12=Mama Talk To Your Daughter
TTITLE13=Reaching For A Mountain
TTITLE14=John Lee Boogie
EXTD=
EXTT0=
EXTT1=
EXTT2=
EXTT3=
EXTT4=
EXTT5=
EXTT6=
EXTT7=
EXTT8=
EXTT9=
EXTT10=
EXTT11=
EXTT12=
EXTT13=
EXTT14=
PLAYORDER=
